<?xml version="1.0" encoding="utf-8"?>
<!-- Generator: Adobe Illustrator 28.0.0, SVG Export Plug-In . SVG Version: 6.00 Build 0)  -->
<svg version="1.1" id="Layer_1" xmlns="http://www.w3.org/2000/svg" xmlns:xlink="http://www.w3.org/1999/xlink" x="0px" y="0px"
	 viewBox="0 0 1080 1080" style="enable-background:new 0 0 1080 1080;" xml:space="preserve">
<style type="text/css">
	.st0{fill:#1F87BD;}
</style>
<g>
	<path d="M627.11,700.41L578.47,780c-2.91,4.76-3.09,10.71-0.46,15.64l44.08,82.73c2.74,5.14,8.09,8.35,13.92,8.35h303.42
		c12.18,0,19.76-13.21,13.62-23.72L654.82,352.51c-6.08-10.41-21.13-10.42-27.22-0.01L384.58,767.53c-2.79,4.77-7.88,7.73-13.41,7.8
		l-34.48,0.44c-12.27,0.16-20.01-13.15-13.81-23.74l177.66-303.18c2.9-4.94,2.88-11.06-0.03-15.99l-47.57-80.54
		c-6.12-10.36-21.11-10.33-27.19,0.06l-298.8,510.6c-6.15,10.51,1.43,23.73,13.61,23.73h295.08c5.57,0,10.72-2.94,13.56-7.73
		l178.05-300.3c6.2-10.45,21.39-10.26,27.32,0.34l97.41,173.94c5.73,10.22-1.3,22.9-13.01,23.46l-26.95,1.28
		c-5.69,0.27-11.08-2.54-14.11-7.37l-44.01-70.1C647.7,690.33,633.22,690.42,627.11,700.41z"/>
	<path class="st0" d="M479.29,282.79l45.86,79.14c6.62,11.43,23.12,11.43,29.74,0l45.82-79.08c3.4-5.87,3.03-13.19-0.95-18.69
		l-46.13-63.76c-6.89-9.52-21.08-9.48-27.91,0.08l-45.54,63.7C476.25,269.67,475.91,276.95,479.29,282.79z"/>
</g>
</svg>
